# xmcd
#
# Track frame offsets:
#	150
#	13541
#	33019
#	47001
#	58882
#	75254
#	92370
#	106759
#	125143
#	144578
#	160527
#	176156
#	193060
#	209235
#
# Disc length: 3024 seconds
#
# Revision: 1
# Processed by: cddbd v1.5.2PL0 Copyright (c) Steve Scherf et al.
# Submitted via: audiograbber 1.83.01
#
DISCID=b60bce0e
DTITLE=MARIA DAPAZ - OUTRO BAIÃO
DYEAR=1900
DGENRE=FORRRÓ
TTITLE0=ACONTECEU
TTITLE1=TABULEIRO
TTITLE2=EM TERRAS DO BEM AMAR
TTITLE3=PODE PARAR COM CHORORÔ
TTITLE4=GUME DE OURO
TTITLE5=PRINCESINHA DA INGAZEIRA
TTITLE6=UM TANTINHO ASSIM
TTITLE7=AGUAMEL
TTITLE8=MARIA E TERESA
TTITLE9=MINHA AQUARELA JUNINA
TTITLE10=EU GOSTO DE FORRÓ
TTITLE11=FAZENDEIRA DO AMOR
TTITLE12=MEUS SONHOS DE PAPEL
TTITLE13=OUTRO BAIÃO
EXTD=
EXTT0=
EXTT1=
EXTT2=
EXTT3=
EXTT4=
EXTT5=
EXTT6=
EXTT7=
EXTT8=
EXTT9=
EXTT10=
EXTT11=
EXTT12=
EXTT13=
PLAYORDER=
